<svg aria-hidden="true" style="position: absolute; width: 0; height: 0; overflow: hidden;" version="1.1" xmlns="http://www.w3.org/2000/svg" xmlns:xlink="http://www.w3.org/1999/xlink">
<defs>
<symbol id="icon-send" viewBox="0 0 38 32">
<path fill="#fff" style="fill: var(--color1, #fff)" d="M38.4 0l-38.4 18 12.272 3.788 18.928-14.788-14.397 16.186 0.012 0.004-0.014-0.004v8.814l6.882-6.691 8.718 2.691 6-28z"></path>
</symbol>
<symbol id="check-mark" viewBox="0 0 40 32">
<path fill="#f4f4fd" style="fill: var(--color2, #f4f4fd)" d="M33.782 1.020c0.691-0.662 1.611-1.027 2.565-1.020s1.869 0.387 2.55 1.059c0.681 0.672 1.076 1.584 1.101 2.543s-0.321 1.891-0.966 2.598l-19.578 24.617c-0.337 0.365-0.743 0.657-1.195 0.86s-0.939 0.312-1.434 0.322c-0.495 0.009-0.986-0.082-1.445-0.268s-0.876-0.463-1.226-0.815l-12.984-13.054c-0.362-0.339-0.652-0.747-0.853-1.201s-0.309-0.944-0.318-1.441 0.082-0.99 0.267-1.451c0.185-0.461 0.461-0.879 0.81-1.231s0.766-0.628 1.224-0.814 0.949-0.277 1.443-0.269c0.494 0.009 0.981 0.118 1.433 0.32s0.858 0.494 1.195 0.857l10.275 10.325 17.042-21.83c0.031-0.038 0.063-0.074 0.098-0.109h-0.005z"></path>
</symbol>
<symbol id="mail" viewBox="0 0 43 32">
<path d="M37.333 0h-32c-2.2 0-3.98 1.8-3.98 4l-0.020 24c0 2.2 1.8 4 4 4h32c2.2 0 4-1.8 4-4v-24c0-2.2-1.8-4-4-4zM36.533 8.5l-14.14 8.84c-0.64 0.4-1.48 0.4-2.12 0l-14.14-8.84c-0.5-0.32-0.8-0.86-0.8-1.44 0-1.34 1.46-2.14 2.6-1.44l13.4 8.38 13.4-8.38c1.14-0.7 2.6 0.1 2.6 1.44 0 0.58-0.3 1.12-0.8 1.44z"></path>
</symbol>
<symbol id="person-black" viewBox="0 0 32 32">
<path d="M16 16c2.947 0 5.333-2.387 5.333-5.333s-2.387-5.333-5.333-5.333c-2.947 0-5.333 2.387-5.333 5.333s2.387 5.333 5.333 5.333zM16 18.667c-3.56 0-10.667 1.787-10.667 5.333v1.333c0 0.733 0.6 1.333 1.333 1.333h18.667c0.733 0 1.333-0.6 1.333-1.333v-1.333c0-3.547-7.107-5.333-10.667-5.333z"></path>
</symbol>
<symbol id="phone-black" viewBox="0 0 24 32">
<path d="M19.635 18.487l-2.451-0.28c-0.589-0.067-1.167 0.135-1.582 0.55l-1.775 1.775c-2.731-1.389-4.969-3.618-6.359-6.359l1.785-1.785c0.415-0.415 0.618-0.994 0.55-1.582l-0.28-2.432c-0.116-0.975-0.936-1.708-1.92-1.708h-1.669c-1.090 0-1.997 0.907-1.93 1.997 0.511 8.24 7.102 14.821 15.332 15.332 1.090 0.068 1.997-0.839 1.997-1.93v-1.669c0.010-0.975-0.724-1.795-1.698-1.911z"></path>
</symbol>
<symbol id="hamburger" viewBox="0 0 47 32">
<path d="M0.944 0.089c0.161-0.047 8.592-0.077 22.527-0.081l22.269-0.007 0.806 0.401v3.375l-0.407 0.227-0.407 0.225-22.106 0.019c-24.833 0.023-22.657 0.076-23.293-0.56l-0.332-0.332v-2.506l0.343-0.343c0.189-0.189 0.46-0.377 0.601-0.417zM1.068 13.575c0.116-0.035 10.231-0.058 22.477-0.051l22.263 0.013 0.698 0.39v3.408l-0.316 0.175c-0.175 0.096-0.559 0.209-0.854 0.252-0.74 0.108-43.079 0.108-43.821 0-0.63-0.092-1.148-0.365-1.364-0.72-0.131-0.214-0.151-0.397-0.151-1.401 0-1.028 0.017-1.183 0.159-1.412 0.167-0.269 0.55-0.544 0.909-0.653zM1.219 27.081c0.17-0.041 9.616-0.064 22.364-0.057l22.071 0.012 0.892 0.438v1.673c0 1.852 0.031 1.737-0.543 2.022-0.256 0.127-1.585 0.135-22.378 0.154-24.833 0.022-22.657 0.074-23.293-0.56l-0.332-0.332v-2.497l0.246-0.282c0.242-0.288 0.579-0.493 0.972-0.571z"></path>
</symbol>
</defs>
</svg>
