<svg xmlns="http://www.w3.org/2000/svg" aria-hidden="true" style="position:absolute;width:0;height:0;overflow:hidden"><defs>
<symbol id="icon-client-6" viewBox="0 0 61 32"><path d="M31.102 15.798a1.072 1.072 0 0 1-.22-.724v-1.05c0-.322.073-.567.219-.734s.397-.251.753-.25c.334 0 .572.071.712.214a.866.866 0 0 1 .21.628v.247h-.598v-.25a1.34 1.34 0 0 0-.017-.245.24.24 0 0 0-.085-.145.346.346 0 0 0-.217-.057.368.368 0 0 0-.228.06.28.28 0 0 0-.099.16 1.265 1.265 0 0 0-.024.26v1.275a.654.654 0 0 0 .077.358c.03.038.071.068.119.087s.102.026.154.02a.325.325 0 0 0 .212-.058.255.255 0 0 0 .089-.155c.014-.085.02-.17.019-.255v-.259h.598v.236a.958.958 0 0 1-.207.66c-.137.156-.371.234-.716.234s-.604-.083-.752-.256zM33.591 15.808c-.151-.163-.227-.402-.227-.717v-1.105c0-.312.076-.548.227-.708s.404-.24.758-.239c.352 0 .603.08.754.239s.228.396.228.708v1.105c0 .312-.077.551-.23.716s-.404.247-.752.247-.605-.083-.758-.246zm1.037-.265a.617.617 0 0 0 .072-.327v-1.353a.597.597 0 0 0-.071-.321c-.03-.039-.073-.069-.122-.088s-.104-.025-.158-.019c-.054-.006-.108 0-.158.019s-.092.049-.123.088a.593.593 0 0 0-.072.32v1.359a.599.599 0 0 0 .072.327c.035.034.078.062.126.081a.421.421 0 0 0 .308 0 .384.384 0 0 0 .126-.081v-.006zM36.05 13.071h.644l.484 2.038.495-2.038h.627l.063 2.942H37.9l-.049-2.045-.478 2.045h-.371l-.495-2.052-.046 2.052h-.468l.058-2.942zM39.085 13.071h1.003c.577 0 .867.278.867.835 0 .533-.304.8-.912.799h-.342v1.308h-.619l.004-2.942zm.856 1.258c.061.007.123.002.182-.014s.113-.043.158-.079a.476.476 0 0 0 .089-.332.96.96 0 0 0-.029-.267c-.009-.029-.024-.057-.046-.081s-.048-.044-.078-.059a.631.631 0 0 0-.276-.047h-.24v.879h.24zM41.847 13.071h.665l.682 2.942h-.577l-.135-.678h-.593l-.139.678h-.585l.682-2.942zm.568 1.923-.231-1.235-.232 1.235h.463zM43.745 13.071h.433l.829 1.678v-1.678h.514v2.942h-.412l-.835-1.752v1.752h-.531l.001-2.942zM46.725 14.892l-.689-1.816h.581l.421 1.167.395-1.167h.568l-.681 1.816v1.122h-.594v-1.122zM32.057 17.299v.154h-.505v1.195h-.212v-1.195h-.508v-.154h1.224zM33.641 18.649h-.163a.073.073 0 0 1-.046-.013.073.073 0 0 1-.027-.031l-.146-.32h-.701l-.146.32a.09.09 0 0 1-.022.036.073.073 0 0 1-.046.013h-.163l.619-1.349h.215l.626 1.344zm-1.025-.501h.584l-.248-.549a1.018 1.018 0 0 1-.046-.127l-.024.072-.022.057-.245.548zM34.708 18.516a.659.659 0 0 0 .215-.016.692.692 0 0 0 .172-.058v-.303h-.248c-.006 0-.012 0-.018-.002s-.011-.005-.015-.008-.007-.007-.009-.011-.003-.009-.003-.014V18h.48v.517a.907.907 0 0 1-.261.11 1.143 1.143 0 0 1-.155.028c-.06.006-.12.009-.181.009a.936.936 0 0 1-.312-.05.758.758 0 0 1-.248-.141.66.66 0 0 1-.16-.214.678.678 0 0 1-.057-.28.624.624 0 0 1 .216-.496.746.746 0 0 1 .248-.14 1.06 1.06 0 0 1 .332-.05c.058 0 .115.004.172.012a.805.805 0 0 1 .379.157l-.059.083c-.005.008-.012.014-.02.018s-.018.007-.028.007a.07.07 0 0 1-.038-.011.936.936 0 0 1-.061-.032.735.735 0 0 0-.354-.078.738.738 0 0 0-.239.037.485.485 0 0 0-.297.275.634.634 0 0 0 0 .45.53.53 0 0 0 .305.277.722.722 0 0 0 .245.027zM36.681 18.495h.676v.154h-.883V17.3h.212l-.005 1.195zM38.061 18.649h-.212V17.3h.212v1.349zM38.848 17.306a.11.11 0 0 1 .032.025l.905 1.017a.384.384 0 0 1 0-.048v-1.006h.184v1.355h-.107a.102.102 0 0 1-.046-.008.106.106 0 0 1-.033-.026l-.904-1.016v1.05h-.177V17.3h.11c.012 0 .024.002.035.006zM41.529 17.299v.148h-.751v.445h.608v.143h-.608v.46h.751v.148h-.968v-1.346h.968zM19.344 8.967l9.401 2.303v8.071l-9.401-2.302V8.967zm-.603-.688v9.152l10.605 2.599v-9.151l-10.605-2.6z"/><path d="m24.425 24.279-10.607-2.601v-9.151l10.607 2.6v9.152zM18.917 8.863l9.278 2.274-3.946 3.406-9.279-2.276 3.947-3.405zm-.176-.584-4.923 4.248 10.607 2.6 4.921-4.248-10.605-2.6zM25.021 23.764l4.325-3.733-4.325-1.061v4.793z"/></symbol>
<symbol id="icon-client-5" viewBox="0 0 61 32"><path d="M21.379 21.954a.509.509 0 0 1 .134.352c.005.083-.012.167-.048.244s-.091.146-.16.201a.967.967 0 0 1-.605.162h-1.064v-2.23h1.042c.206-.012.41.04.577.148.067.051.121.115.156.187s.051.151.046.23a.484.484 0 0 1-.121.341.576.576 0 0 1-.317.174.62.62 0 0 1 .359.191zm-1.248-.337h.445a.457.457 0 0 0 .283-.074c.033-.027.059-.061.076-.099s.023-.078.02-.119a.258.258 0 0 0-.094-.218.465.465 0 0 0-.292-.075h-.438v.585zm.772.855c.036-.028.064-.063.082-.102s.026-.082.023-.124c.003-.043-.006-.086-.024-.126s-.047-.075-.083-.103a.497.497 0 0 0-.302-.081h-.467v.613h.473a.51.51 0 0 0 .299-.077zM23.509 22.912l-.58-.872h-.218v.872h-.499v-2.23h.944a.998.998 0 0 1 .657.19c.132.121.212.28.224.45s-.042.337-.154.473a.796.796 0 0 1-.45.227l.617.891h-.542zm-.798-1.175h.408c.283 0 .425-.113.425-.338.003-.046-.005-.092-.023-.135s-.046-.082-.081-.115a.477.477 0 0 0-.321-.09h-.413l.005.679zM26.234 22.464h-.993l-.175.449h-.523l.912-2.205h.565l.909 2.205h-.523l-.172-.449zm-.133-.338-.363-.941-.363.941h.726zM29.645 22.913h-.495l-1.11-1.516v1.516h-.494v-2.23h.494l1.11 1.525v-1.525h.495v2.23zM32.469 22.379a1.024 1.024 0 0 1-.448.393 1.601 1.601 0 0 1-.696.141h-.881v-2.23h.881c.241-.006.48.041.696.137.189.086.346.222.448.389a1.19 1.19 0 0 1 0 1.17zm-.566-.054c.141-.148.219-.337.219-.532s-.078-.384-.219-.532a.928.928 0 0 0-.62-.19h-.344v1.443h.344a.919.919 0 0 0 .62-.19zM26.543 8.279s6.388 2.171 6.252 5.313v5.314s-6.383-2.172-6.25-5.314l-.002-5.313zM38.487 17.662a9.378 9.378 0 0 1 4.059-1.346v-1.663c-1.679.582-3.102 1.638-4.059 3.01z"/><path  d="M37.762 18.163c.987-1.79 2.699-3.171 4.783-3.86V9.51s-9.097 3.093-8.905 7.567v7.566s.405-.138 1.043-.398c0-.242 0-.486.029-.731.188-2.077 1.285-4.002 3.05-5.351z"/><path  d="M36.897 20.973a7.108 7.108 0 0 1 .319-1.549c-1.099 1.165-1.764 2.611-1.902 4.134a6.23 6.23 0 0 0-.024.436 27.346 27.346 0 0 0 1.75-.83 7.081 7.081 0 0 1-.142-2.191zM37.259 21.001c-.06.663-.023 1.33.113 1.984 2.485-1.339 5.278-3.408 5.171-5.908v-.218c-1.776.179-3.437.878-4.729 1.989a6.853 6.853 0 0 0-.554 2.153z"/></symbol>
<symbol id="icon-client-4" viewBox="0 0 61 32"><path d="M20.392 13.643h-.001c-.867 0-1.571.634-1.571 1.416v.001c0 .782.703 1.416 1.571 1.416h.001c.867 0 1.571-.634 1.571-1.416v-.001c0-.782-.703-1.416-1.571-1.416zM31.986 13.19c-.002-1.086-.482-2.128-1.334-2.896s-2.007-1.201-3.212-1.203c-1.205.002-2.361.434-3.213 1.203s-1.332 1.81-1.335 2.896v5.991s9.092-.913 9.093-5.99v-.001zM15.636 21.147c.002.756.336 1.48.929 2.015s1.396.836 2.234.838c.838-.002 1.641-.303 2.234-.838s.927-1.259.929-2.014V16.98s-6.327.636-6.327 4.167zm3.164.747c-.164 0-.324-.044-.46-.126s-.242-.199-.305-.335-.079-.287-.047-.432c.032-.145.111-.278.227-.382s.263-.176.424-.204c.161-.029.327-.014.479.043s.281.152.372.275a.696.696 0 0 1-.101.945c-.077.07-.168.125-.269.163s-.209.057-.318.057v-.003zM24.585 20.551v1.551h-.32v-1.551h.32zm.618.663v.249h-.705v-.249h.705zm.075-.663v.25h-.78v-.25h.78zm1.459.739v.074c0 .118-.016.224-.048.317s-.077.174-.135.24c-.058.065-.128.115-.209.15s-.169.052-.267.052c-.097 0-.186-.017-.267-.052s-.15-.085-.209-.15c-.059-.066-.105-.146-.137-.24s-.048-.2-.048-.317v-.074c0-.119.016-.224.048-.317s.077-.174.135-.24c.059-.066.129-.116.209-.151s.17-.052.267-.052c.098 0 .187.017.267.052s.151.085.209.151c.059.066.104.146.136.24s.049.199.049.317zm-.323.074v-.076c0-.082-.007-.155-.022-.217s-.037-.115-.066-.158-.065-.075-.107-.096c-.042-.022-.09-.033-.144-.033s-.102.011-.144.033c-.041.021-.076.053-.105.096s-.05.095-.065.158a.941.941 0 0 0-.022.217v.076c0 .082.007.154.022.217s.037.115.066.159a.29.29 0 0 0 .251.13.278.278 0 0 0 .249-.13c.028-.043.05-.096.065-.159s.022-.136.022-.217zm1.361.332c0-.028-.004-.053-.013-.075s-.023-.043-.045-.062c-.022-.019-.053-.038-.093-.056s-.091-.038-.154-.058c-.07-.023-.137-.048-.2-.077s-.118-.061-.166-.099c-.048-.038-.085-.083-.113-.133s-.04-.109-.04-.176c0-.065.014-.123.043-.176s.068-.099.119-.136c.051-.038.111-.068.181-.088s.147-.031.231-.031c.114 0 .214.021.299.062s.151.098.198.169a.433.433 0 0 1 .071.246h-.317c0-.045-.01-.085-.029-.119s-.047-.062-.085-.082a.303.303 0 0 0-.143-.03c-.055 0-.102.009-.138.026s-.065.039-.083.067a.17.17 0 0 0-.028.094c0 .026.006.05.019.071s.033.041.06.06.059.036.097.052c.038.016.083.032.133.048.084.026.159.054.223.086s.119.068.162.108c.043.04.076.085.098.135s.033.108.033.172a.368.368 0 0 1-.153.316c-.05.037-.109.065-.178.084a.869.869 0 0 1-.458-.001.671.671 0 0 1-.203-.093c-.06-.041-.109-.094-.145-.158s-.054-.14-.054-.227h.321c0 .048.007.089.022.122s.036.06.063.081c.028.021.06.035.098.045a.496.496 0 0 0 .262-.009.169.169 0 0 0 .107-.159zm1.23-1.145v1.551h-.319v-1.551h.319zm.477 0v.25h-1.266v-.25h1.266zm1.223 1.302v.249h-.826v-.249h.826zm-.721-1.302v1.551h-.32v-1.551h.32zm.614.632v.243h-.718v-.243h.718zm.106-.632v.25h-.825v-.25h.825zm.188 0h.578c.119 0 .221.018.306.053s.152.088.198.158.069.155.069.257c0 .083-.014.154-.043.214s-.067.108-.118.148a.627.627 0 0 1-.178.094l-.101.053H31.1l-.002-.249h.374c.056 0 .103-.01.14-.03s.065-.048.083-.083a.258.258 0 0 0 .029-.124c0-.05-.009-.093-.028-.129s-.047-.064-.084-.083-.085-.029-.142-.029h-.259v1.301h-.32v-1.551zm.867 1.551-.354-.691.338-.002.358.679v.015h-.342zm1.678-.553h-.395V21.3h.395c.061 0 .111-.01.149-.03s.066-.049.084-.085a.314.314 0 0 0 0-.251c-.018-.04-.046-.072-.084-.096s-.088-.036-.149-.036h-.284v1.301h-.32v-1.551h.604c.121 0 .225.022.312.066a.474.474 0 0 1 .269.443c0 .1-.023.187-.069.26s-.113.13-.2.169a.742.742 0 0 1-.312.06zm1.843.304v.249h-.826v-.249h.826zm-.721-1.302v1.551h-.32v-1.551h.32zm.613.632v.243h-.718v-.243h.718zm.107-.632v.25h-.825v-.25h.825zm.902 0v1.551h-.319v-1.551h.319zm.478 0v.25h-1.266v-.25h1.266zm1.222 1.302v.249h-.825v-.249h.825zm-.721-1.302v1.551h-.32v-1.551h.32zm.614.632v.243h-.718v-.243h.718zm.106-.632v.25h-.824v-.25h.824zm.188 0h.579c.119 0 .22.018.306.053s.152.088.198.158.069.155.069.257c0 .083-.014.154-.043.214s-.067.108-.118.148a.64.64 0 0 1-.178.094l-.101.053h-.503l-.002-.249h.374c.056 0 .103-.01.139-.03s.065-.048.083-.083a.258.258 0 0 0 .029-.124c0-.05-.009-.093-.028-.129s-.047-.064-.084-.083a.31.31 0 0 0-.141-.029h-.259v1.301h-.32v-1.551zm.867 1.551-.354-.691.338-.002.358.679v.015h-.342zm1.338-.406a.197.197 0 0 0-.013-.075c-.008-.023-.023-.043-.045-.062s-.053-.038-.093-.056a1.434 1.434 0 0 0-.154-.058c-.071-.023-.137-.048-.2-.077s-.118-.061-.166-.099c-.048-.038-.085-.083-.113-.133s-.04-.109-.04-.176c0-.065.014-.123.043-.176s.068-.099.119-.136a.565.565 0 0 1 .181-.088.812.812 0 0 1 .53.031.484.484 0 0 1 .198.169.433.433 0 0 1 .071.246h-.317a.23.23 0 0 0-.029-.119c-.018-.035-.047-.062-.085-.082s-.085-.03-.143-.03c-.055 0-.101.009-.139.026s-.064.039-.083.067a.162.162 0 0 0-.028.094c0 .026.006.05.019.071s.033.041.06.06c.026.018.059.036.097.052s.083.032.133.048c.085.026.159.054.223.086s.119.068.162.108.076.085.098.135c.022.05.033.108.033.172a.368.368 0 0 1-.153.316c-.049.037-.109.065-.178.084a.869.869 0 0 1-.458-.001A.671.671 0 0 1 39.6 22c-.06-.041-.109-.094-.145-.158s-.054-.14-.054-.227h.321c0 .048.007.089.022.122s.036.06.063.081c.028.021.06.035.098.045a.494.494 0 0 0 .261-.009.17.17 0 0 0 .107-.159z"/></symbol>
<symbol id="icon-client-3" viewBox="0 0 61 32"><path d="M25.022 23.718a.042.042 0 0 1 .031.012l.08.076a.65.65 0 0 1-.226.143.884.884 0 0 1-.32.051.871.871 0 0 1-.301-.048.622.622 0 0 1-.425-.613.616.616 0 0 1 .211-.478.742.742 0 0 1 .241-.136.953.953 0 0 1 .31-.048.85.85 0 0 1 .288.044c.079.029.152.07.216.121l-.067.081a.061.061 0 0 1-.017.015c-.008.005-.018.007-.027.006s-.02-.004-.029-.009l-.036-.021-.05-.027a.78.78 0 0 0-.067-.027.706.706 0 0 0-.433.006.463.463 0 0 0-.288.262.539.539 0 0 0-.041.213.553.553 0 0 0 .041.216.457.457 0 0 0 .278.259.603.603 0 0 0 .207.034.987.987 0 0 0 .122-.007.494.494 0 0 0 .265-.111.07.07 0 0 1 .038-.014zM27.34 23.338a.654.654 0 0 1-.054.267c-.033.077-.084.148-.151.207s-.148.105-.237.136a.993.993 0 0 1-.61 0 .708.708 0 0 1-.236-.136.607.607 0 0 1-.153-.209.687.687 0 0 1 0-.534.62.62 0 0 1 .389-.341.978.978 0 0 1 .61 0c.089.031.17.077.237.136a.62.62 0 0 1 .206.475zm-.21 0a.544.544 0 0 0-.038-.214.446.446 0 0 0-.277-.261.717.717 0 0 0-.444 0 .483.483 0 0 0-.17.101.424.424 0 0 0-.108.16.62.62 0 0 0 0 .429.449.449 0 0 0 .278.26.732.732 0 0 0 .444 0 .442.442 0 0 0 .277-.26.547.547 0 0 0 .038-.214zM28.922 23.563l.021.048.023-.048c.008-.015.016-.032.026-.047l.513-.797c.01-.014.019-.022.029-.025a.12.12 0 0 1 .042-.004h.152v1.296h-.18v-1.038l-.516.808c-.007.012-.017.022-.03.029s-.028.011-.044.011h-.029c-.016 0-.031-.004-.044-.011s-.024-.017-.03-.03l-.531-.813v1.04h-.174v-1.293h.152a.146.146 0 0 1 .042.004.057.057 0 0 1 .028.025l.524.798a.3.3 0 0 1 .026.046zM30.853 23.499v.485h-.201V22.69h.448a.999.999 0 0 1 .25.028.502.502 0 0 1 .177.081.322.322 0 0 1 .1.127.383.383 0 0 1 .034.166.362.362 0 0 1-.145.296.526.526 0 0 1-.178.086.892.892 0 0 1-.242.03l-.243-.003zm0-.139h.243a.548.548 0 0 0 .156-.02.337.337 0 0 0 .112-.056.247.247 0 0 0 .092-.195c.002-.036-.005-.072-.02-.105s-.04-.064-.07-.088a.435.435 0 0 0-.27-.069h-.243v.533zM33.551 23.986h-.159a.08.08 0 0 1-.044-.012.083.083 0 0 1-.026-.03l-.136-.313H32.5l-.142.313a.076.076 0 0 1-.025.029.079.079 0 0 1-.045.013h-.159l.602-1.296h.209l.61 1.296zm-.994-.481h.566l-.239-.527a.893.893 0 0 1-.045-.122l-.023.068c-.007.021-.015.039-.022.055l-.237.527zM34.418 22.696a.1.1 0 0 1 .03.023l.878.977V22.69h.18v1.296h-.1c-.014 0-.028-.002-.041-.008s-.023-.014-.032-.024l-.877-.976v1.008h-.18V22.69h.106c.012 0 .025.002.036.006zM36.985 23.47v.515h-.201v-.515l-.555-.78h.18a.07.07 0 0 1 .043.011c.011.008.02.018.027.029l.347.503a.68.68 0 0 1 .061.115l.026-.056a.5.5 0 0 1 .034-.059l.343-.507a.133.133 0 0 1 .026-.027.066.066 0 0 1 .043-.013h.182l-.556.784zM28.823 20.515c.087.009.176.017.265.024 1.354-.518 2.5-1.365 3.294-2.436s1.201-2.318 1.17-3.585l-1.493-1.275c.303 1.349.162 2.744-.41 4.029s-1.55 2.408-2.826 3.244z"/><path d="m28.29 20.456.04.007c1.364-.833 2.403-1.997 2.984-3.341s.677-2.805.276-4.196l-2.126-1.816c.86 1.493 1.206 3.164.998 4.818s-.961 3.225-2.172 4.528zM35.5 16.015c-.361 1.393-1.238 2.648-2.501 3.581a8.02 8.02 0 0 1-1.188.729c1.028-.258 1.974-.715 2.763-1.335s1.401-1.386 1.789-2.24l-.862-.736z"/><path  d="m35.162 15.81-1.228-1.049c-.023 1.196-.421 2.364-1.152 3.384s-1.768 1.854-3.004 2.416h.006c.275 0 .551-.014.824-.042 1.155-.403 2.175-1.044 2.97-1.865s1.339-1.799 1.584-2.844zM28.468 10.344l-1.465-1.253c-1.309.432-2.435 1.192-3.231 2.18s-1.223 2.158-1.227 3.357c.005 1.325.527 2.611 1.483 3.654s2.293 1.784 3.797 2.105c1.343-1.398 2.13-3.126 2.245-4.932s-.446-3.597-1.604-5.111zM38.545 15.617c-.005-1.572-.739-3.079-2.04-4.19s-3.064-1.738-4.904-1.743a7.911 7.911 0 0 0-2.486.395l8.967 7.661a5.13 5.13 0 0 0 .464-2.123z"/></symbol>
<symbol id="icon-client-2" viewBox="0 0 61 32"><path d="M29.86 7.976h-.05c-.076-.005-.153-.006-.229-.008h-.166a9.211 9.211 0 0 0-.471.011 10.265 10.265 0 0 0-3.824.976l-.157.076v8.051l.368-.125c.323-.111.667-.211 1.023-.303a12.5 12.5 0 0 1 2.944-.391v1.058a9.775 9.775 0 0 0-.387.011h-.03c-.764.042-1.523.158-2.265.348a11.48 11.48 0 0 0-2.698 1.051V8.405a10.794 10.794 0 0 1 2.831-1.151 10.822 10.822 0 0 1 2.668-.344h.155c.186.005.367.013.537.026.448.032.893.102 1.329.212v1.041a8.124 8.124 0 0 0-1.288-.194l-.026-.002a3.048 3.048 0 0 0-.263-.015zm1.832 1.064c.231.018.47.026.712.026a11.398 11.398 0 0 0 2.805-.36c.939-.236 1.846-.59 2.697-1.052v10.142c-.885.516-1.838.903-2.831 1.151-.872.224-1.768.339-2.668.343a8.12 8.12 0 0 1-2.024-.239V8.843a8.518 8.518 0 0 0 1.309.196zm5.161.079-.368.124c-.338.114-.68.215-1.023.306-.999.257-2.026.388-3.057.392-.24 0-.461-.006-.674-.02l-.293-.019v8.283l.252.022c.234.02.475.03.718.03a9.727 9.727 0 0 0 2.407-.312 10.049 10.049 0 0 0 1.881-.676l.157-.076V9.119zM24.632 22.259a.537.537 0 0 0-.409-.165.614.614 0 0 0-.236.044.525.525 0 0 0-.303.306.595.595 0 0 0-.042.228v1.38a.655.655 0 0 0 .054.283.486.486 0 0 0 .328.283.794.794 0 0 0 .206.029.586.586 0 0 0 .571-.581v-.154h-.361v.123a.322.322 0 0 1-.021.123.242.242 0 0 1-.052.078.218.218 0 0 1-.075.04.275.275 0 0 1-.075.013.183.183 0 0 1-.17-.074.325.325 0 0 1-.048-.185v-1.286a.445.445 0 0 1 .044-.206.181.181 0 0 1 .176-.083c.031-.001.062.005.09.019s.052.034.071.059a.3.3 0 0 1 .06.185v.119h.357v-.141a.64.64 0 0 0-.164-.435zM26.774 22.243a.643.643 0 0 0-.41-.152.61.61 0 0 0-.405.152.58.58 0 0 0-.192.46v1.323a.645.645 0 0 0 .052.271.54.54 0 0 0 .14.185c.055.051.12.091.19.117.069.025.142.038.215.039s.146-.013.215-.039a.566.566 0 0 0 .383-.573v-1.323a.642.642 0 0 0-.052-.267.583.583 0 0 0-.136-.193zm-.168 1.784a.233.233 0 0 1-.072.192.266.266 0 0 1-.34 0 .241.241 0 0 1-.072-.192v-1.323a.233.233 0 0 1 .072-.192.266.266 0 0 1 .34 0 .241.241 0 0 1 .072.192v1.323zM29.588 24.618v-2.505h-.347l-.455 1.326h-.006l-.459-1.326h-.343v2.505h.358v-1.524h.006l.35 1.077h.178l.353-1.077h.006v1.524h.358zM31.621 22.289a.498.498 0 0 0-.202-.137.814.814 0 0 0-.259-.039h-.532v2.505h.357v-.978h.184a.654.654 0 0 0 .322-.068.52.52 0 0 0 .196-.191.614.614 0 0 0 .082-.218c.014-.094.02-.19.019-.285a1.436 1.436 0 0 0-.035-.358.526.526 0 0 0-.132-.23zm-.184.763a.325.325 0 0 1-.033.13.206.206 0 0 1-.092.088.362.362 0 0 1-.168.031h-.163v-.852h.184a.343.343 0 0 1 .161.031.208.208 0 0 1 .084.092c.02.044.03.091.031.14v.166c0 .058.004.118 0 .172h-.004zM33.312 22.113h-.293l-.552 2.505h.357l.105-.538h.487l.105.538h.357l-.566-2.505zm-.329 1.626.176-.908h.006l.175.908h-.357zM35.618 23.622h-.006l-.539-1.509h-.343v2.505h.357v-1.506h.007l.545 1.506h.336v-2.505h-.357v1.509zM37.799 22.113l-.287.996h-.007l-.287-.996h-.378l.49 1.446v1.059h.357v-1.059l.49-1.446h-.378zM23.636 25.325h.172v.483h.117v-.483h.171v-.099h-.46v.099zM25.082 25.226l-.225.582h.124l.048-.132h.232l.05.132h.127l-.231-.582h-.124zm-.018.352.079-.215.079.215h-.158zM26.512 25.593h.134v.075a.223.223 0 0 1-.138.049.145.145 0 0 1-.123-.056.241.241 0 0 1-.043-.152c0-.129.056-.194.167-.194a.123.123 0 0 1 .132.093l.115-.022c-.025-.114-.107-.171-.247-.171a.29.29 0 0 0-.203.075.28.28 0 0 0-.083.224.314.314 0 0 0 .075.218c.028.029.063.052.101.067s.079.021.12.018a.353.353 0 0 0 .247-.092v-.229h-.252v.098zM27.972 25.226h-.118v.582h.407v-.099h-.29v-.483zM29.206 25.226h-.118v.582h.118v-.582zM30.413 25.615l-.238-.388h-.114v.582h.109v-.38l.234.38h.117v-.582h-.108v.388zM31.504 25.552h.29v-.099h-.29v-.128h.312v-.099h-.43v.582h.442v-.099h-.324v-.157zM34.15 25.456h-.229v-.229h-.117v.582h.117v-.254h.229v.254h.117v-.582h-.117v.229zM35.247 25.552h.291v-.099h-.291v-.128h.313v-.099h-.43v.582h.441v-.099h-.324v-.157zM36.736 25.552c.101-.016.153-.069.153-.162a.14.14 0 0 0-.057-.13.333.333 0 0 0-.17-.034h-.247v.582h.117v-.243h.023a.153.153 0 0 1 .073.013.12.12 0 0 1 .041.043l.127.185h.14l-.071-.114a.402.402 0 0 0-.129-.14zm-.118-.081h-.086v-.146h.092c.04-.003.08.001.119.014.008.008.015.017.02.027s.007.022.006.033c0 .011-.004.022-.009.032s-.013.019-.022.025a.344.344 0 0 1-.119.014zM37.858 25.552h.289v-.099h-.289v-.128h.313v-.099h-.431v.582h.441v-.099h-.324v-.157z" /></symbol>
<symbol id="icon-client-1" viewBox="0 0 61 32"><path  d="m25.455 8.364 2.548 2.428-4.73-.003v11.779h12.364v-4.504l2.545 2.425V8.364H25.455zm10.07 9.415L28.3 10.895h7.225v6.884zm-2.244 3.066h-8.052v-7.922h.569v7.386h7.483v.536zm-6.446 3.905-.3-.617h-.248l.435.817v.476h.225v-.476l.435-.817h-.247l-.3.617zm1.106-.618h.053l.488 1.293h-.234l-.105-.303h-.5l-.104.303h-.233l.486-1.293h.149zm-.237.814h.378l-.189-.548-.189.548zm1.562-.214-.028-.036c-.033-.044-.059-.086-.077-.127s-.028-.084-.028-.128c0-.067.014-.125.042-.174s.067-.086.118-.112a.374.374 0 0 1 .178-.04c.066 0 .122.013.17.04s.085.061.11.104a.27.27 0 0 1 .039.142c0 .041-.007.078-.022.112s-.035.064-.061.092a.594.594 0 0 1-.091.079l-.09.065.256.302.023-.052a.52.52 0 0 0 .033-.189h.185c0 .063-.006.122-.019.178a.583.583 0 0 1-.095.213l.189.224h-.248l-.075-.088a.49.49 0 0 1-.133.072.606.606 0 0 1-.201.034c-.086 0-.16-.016-.223-.047s-.111-.075-.146-.13a.352.352 0 0 1-.018-.328.427.427 0 0 1 .09-.112c.035-.032.075-.063.12-.095zm.106.129-.027.019c-.031.025-.055.05-.07.074s-.025.044-.029.064a.22.22 0 0 0 .017.155.19.19 0 0 0 .072.074.234.234 0 0 0 .116.027.329.329 0 0 0 .209-.074l-.288-.338zm.051-.236.079-.053c.037-.025.064-.049.08-.073s.024-.054.024-.091a.129.129 0 0 0-.136-.124c-.03 0-.056.007-.076.021s-.036.032-.047.055a.183.183 0 0 0-.015.075c0 .027.007.054.02.083a.442.442 0 0 0 .071.107zm2.262.379h-.222c-.006.056-.02.104-.041.143s-.05.068-.09.088a.337.337 0 0 1-.154.03c-.052 0-.097-.01-.134-.031s-.068-.05-.092-.088c-.024-.038-.041-.083-.053-.136s-.017-.112-.017-.178v-.109c0-.069.006-.13.019-.183s.032-.099.058-.136c.025-.037.057-.064.095-.083s.082-.028.133-.028c.062 0 .112.011.151.032s.067.051.087.091c.02.04.033.087.039.143h.222c-.009-.086-.033-.163-.073-.23s-.094-.119-.165-.157a.547.547 0 0 0-.261-.057c-.081 0-.154.014-.219.043s-.12.07-.166.123c-.046.053-.082.117-.107.193s-.036.159-.036.252v.107c0 .093.012.177.036.252s.059.139.105.193c.046.053.1.093.164.122s.136.043.216.043c.104 0 .193-.019.265-.057s.129-.09.17-.155a.514.514 0 0 0 .071-.226zm1.233-.19v-.071c0-.098-.013-.185-.039-.262s-.062-.144-.109-.198c-.047-.055-.104-.097-.17-.125a.555.555 0 0 0-.436 0 .475.475 0 0 0-.17.125c-.047.054-.084.12-.11.198s-.039.164-.039.262v.071c0 .098.013.185.039.263s.064.144.112.198a.488.488 0 0 0 .388.168.484.484 0 0 0 .387-.168c.047-.054.084-.12.109-.198s.038-.165.038-.263zm-.223-.073v.073c0 .072-.007.136-.021.192s-.034.103-.06.141a.26.26 0 0 1-.23.114c-.049 0-.093-.009-.131-.028s-.072-.048-.099-.086c-.027-.038-.048-.086-.062-.141s-.021-.12-.021-.192v-.073c0-.072.007-.136.021-.191s.035-.102.061-.139c.027-.038.06-.066.099-.085s.082-.029.131-.029.093.01.132.029c.039.019.072.047.099.085s.048.084.061.139a.78.78 0 0 1 .021.191z"/></symbol>
<symbol id="icon-facebook" viewBox="0 0 32 32"><path d="M32 16c0 4.418-1.791 8.418-4.686 11.314S20.419 32 16 32c-4.418 0-8.418-1.791-11.314-4.686S0 20.419 0 16c0-4.418 1.791-8.418 4.686-11.314S11.581 0 16 0c4.418 0 8.418 1.791 11.314 4.686S32 11.581 32 16z"/><path fill="#f4f4fd" d="M18.132 11.725h1.169V9.69a15.04 15.04 0 0 0-1.702-.09c-1.685 0-2.839 1.06-2.839 3.007V14.4h-1.859v2.275h1.859V22.4h2.279v-5.724h1.784l.283-2.275h-2.068v-1.567c0-.658.178-1.108 1.094-1.108z" style="fill:var(--color3, #f4f4fd)"/></symbol>
<symbol id="icon-1" viewBox="0 0 75 32"><path fill="#f4f4fd" d="M1.143 0h73.143c.631 0 1.143.512 1.143 1.143v29.714c0 .631-.512 1.143-1.143 1.143H1.143A1.143 1.143 0 0 1 0 30.857V1.143C0 .512.512 0 1.143 0z" style="fill:var(--color3, #f4f4fd)"/><path fill="#2e2f42" d="m46.156 19.484-4.825-4.86.535-2.637c.138.054.285.082.433.083h.004a1.234 1.234 0 1 0-1.148-.82l-2.834.346-4.623-4.647a.301.301 0 0 0-.428-.002l-.864.859a.305.305 0 0 0 0 .431l.465.472a8.537 8.537 0 0 0 1.44 10.093.311.311 0 0 0 .083.056 1.823 1.823 0 0 0-.03.313v3.535h-3.657a1.526 1.526 0 0 0-1.524 1.524v.61c0 .168.137.305.305.305h14.019a.305.305 0 0 0 .305-.305v-.61a1.526 1.526 0 0 0-1.524-1.524h-3.657v-1.567c.573.12 1.157.181 1.742.183a8.496 8.496 0 0 0 4.023-1.019l.467.47a.301.301 0 0 0 .428.002l.864-.859a.305.305 0 0 0 0-.431zm-4.282-9.065a.61.61 0 1 1 .429 1.041h-.002a.609.609 0 0 1-.426-1.042h-.001zm-.717 2.002-.342 1.683-.672-.676 1.014-1.008zm-.346-.515-1.097 1.091-.849-.853 1.946-.237zm1.477 11.408c.505 0 .914.409.914.914v.305H29.793v-.305c0-.505.409-.914.914-.914h11.581zm-4.267-1.219v.61h-3.048v-.61h3.048zm-3.047-.609V19.17c0-.739.684-1.341 1.524-1.341s1.524.602 1.524 1.341v2.316h-3.048zm3.657-.969V19.17c0-1.075-.957-1.95-2.133-1.95a2.169 2.169 0 0 0-1.875 1.021 7.924 7.924 0 0 1-1.302-9.078l10.63 10.691a7.899 7.899 0 0 1-5.319.665zm6.451-.391L33.049 8.023l.431-.43 4.534 4.56c.002 0 .003.004.006.005l7.494 7.538-.433.43z" style="fill:var(--color4, #2e2f42)"/><path fill="#4d5ae5" d="M36.5 18.438h-.003a.915.915 0 0 0-.002 1.829h.003a.915.915 0 0 0 .003-1.829zm.214 1.13a.305.305 0 1 1-.216-.521.304.304 0 0 1 .213.521h.003z" style="fill:var(--color2, #4d5ae5)"/></symbol>
<symbol id="icon-2" viewBox="0 0 75 32"><path fill="#f4f4fd" d="M1.143 0h73.143c.631 0 1.143.512 1.143 1.143v29.714c0 .631-.512 1.143-1.143 1.143H1.143A1.143 1.143 0 0 1 0 30.857V1.143C0 .512.512 0 1.143 0z" style="fill:var(--color3, #f4f4fd)"/><path fill="#2e2f42" d="M46.455 15.601a8.746 8.746 0 1 0-11.406 8.332.385.385 0 0 0 .303-.038.365.365 0 0 0 .162-.204l2.209-7a1.094 1.094 0 1 0-.481-2.078l-2.918-2.918a.364.364 0 0 0-.515.515l2.916 2.919a1.071 1.071 0 0 0 .306 1.319l-2.104 6.67c-4.159-1.532-6.288-6.145-4.756-10.304s6.145-6.288 10.304-4.756a8.024 8.024 0 0 1 .492 14.86l-.227-1.071a.364.364 0 0 0-.599-.196l-2.193 1.957a.363.363 0 0 0 .132.619l2.799.893a.365.365 0 0 0 .468-.422l-.223-1.051a8.718 8.718 0 0 0 5.331-8.051zm-8.745-.365a.365.365 0 1 1 0 .73.365.365 0 0 1 0-.73zm1.2 8.494 1.248-1.113.345 1.623-1.593-.51z" style="fill:var(--color4, #2e2f42)"/><path fill="#4d5ae5" d="M37.345 8.677v.729a.364.364 0 0 0 .729 0v-.729a.364.364 0 0 0-.729 0zM30.786 15.236a.364.364 0 0 0 0 .728h.729a.364.364 0 0 0 0-.728h-.729zM44.633 15.965a.365.365 0 1 0 0-.728h-.729a.364.364 0 0 0 0 .728h.729z" style="fill:var(--color2, #4d5ae5)"/></symbol>
<symbol id="icon-3" viewBox="0 0 75 32"><path fill="#f4f4fd" d="M1.143 0h73.143c.631 0 1.143.512 1.143 1.143v29.714c0 .631-.512 1.143-1.143 1.143H1.143A1.143 1.143 0 0 1 0 30.857V1.143C0 .512.512 0 1.143 0z" style="fill:var(--color3, #f4f4fd)"/><path fill="#4d5ae5" d="M37.1 15.408h.609v2.741H37.1v-2.741zM39.537 16.627h.609v1.523h-.609v-1.523zM34.663 17.541h.609v.609h-.609v-.609zM32.836 17.236h.609v.914h-.609v-.914z" style="fill:var(--color2, #4d5ae5)"/><path fill="#2e2f42" d="M29.485 23.023h14.621a.914.914 0 0 0 .914-.914v-1.218a.914.914 0 0 0-.914-.914h-.305v-7.596l1.73-1.639a.92.92 0 1 0-.426-.436l-1.304 1.236v-.703a.914.914 0 0 0-.914-.914H30.703a.914.914 0 0 0-.914.914v9.138h-.305a.914.914 0 0 0-.914.914v1.218c0 .505.409.914.914.914zM45.934 9.621a.305.305 0 1 1 0 .61.305.305 0 0 1 0-.61zm-15.535 1.218c0-.168.136-.305.305-.305h12.184c.168 0 .305.136.305.305v1.279l-.609.579v-1.249a.305.305 0 0 0-.305-.305H31.313a.305.305 0 0 0-.305.305v7.615c0 .168.136.305.305.305h10.966a.305.305 0 0 0 .305-.305v-5.528l.609-.577v7.019H30.4v-9.138zm2.742 3.96a.914.914 0 1 0 .633 1.571l1.059.531a.304.304 0 0 0 .364-.07l2.251-2.532 2.213 1.658a.306.306 0 0 0 .392-.022l1.923-1.822v4.646H31.619v-7.006h10.357v1.52l-2.155 2.041-2.231-1.673a.304.304 0 0 0-.41.041l-2.282 2.567-.853-.427c.006-.037.01-.073.012-.111a.914.914 0 0 0-.914-.914zm.304.914a.306.306 0 1 1-.611-.001.306.306 0 0 1 .611.001zm1.828 4.874h3.046v.305a.305.305 0 0 1-.305.305h-2.437a.305.305 0 0 1-.305-.305v-.305zm-6.092.304c0-.168.137-.305.305-.305h5.178v.305c0 .505.409.914.914.914h2.437a.914.914 0 0 0 .914-.914v-.305h5.178c.168 0 .305.136.305.305v1.218a.306.306 0 0 1-.305.305H29.486a.305.305 0 0 1-.305-.305v-1.218z" style="fill:var(--color4, #2e2f42)"/></symbol>
<symbol id="icon-4" viewBox="0 0 75 32"><path fill="#f4f4fd" d="M1.143 0h73.143c.631 0 1.143.512 1.143 1.143v29.714c0 .631-.512 1.143-1.143 1.143H1.143A1.143 1.143 0 0 1 0 30.857V1.143C0 .512.512 0 1.143 0z" style="fill:var(--color3, #f4f4fd)"/><path fill="#4d5ae5" d="M46.842 9.442a.305.305 0 0 0-.246-.207l-1.091-.159-.489-.989c-.103-.208-.444-.208-.547 0l-.489.989-1.092.159a.305.305 0 0 0-.169.519l.79.77-.187 1.087a.306.306 0 0 0 .442.321l.977-.514.977.514a.307.307 0 0 0 .321-.023.304.304 0 0 0 .121-.298l-.186-1.087.79-.77a.304.304 0 0 0 .077-.312zm-1.407.759a.304.304 0 0 0-.087.27l.109.637-.572-.3a.31.31 0 0 0-.284 0l-.572.3.109-.637a.307.307 0 0 0-.087-.27l-.463-.451.639-.093a.303.303 0 0 0 .229-.167l.286-.579.286.579c.045.09.13.152.229.167l.639.093-.462.451zM43.505 18.584h-.609v.61h.609v-.61zM43.505 19.803h-.609v.61h.609v-.61z" style="fill:var(--color2, #4d5ae5)"/><path fill="#4d5ae5" d="M44.114 19.194h-.609v.61h.609v-.61zM42.895 19.194h-.61v.61h.61v-.61zM41.371 21.937h-.609v.61h.609v-.61zM41.371 23.156h-.609v.61h.609v-.61zM41.981 22.546h-.61v.61h.61v-.61zM40.762 22.546h-.61v.61h.61v-.61zM37.714 20.718h-.609v.61h.609v-.61zM37.714 21.937h-.609v.61h.609v-.61zM38.324 21.327h-.609v.61h.609v-.61zM37.105 21.327h-.61v.61h.61v-.61zM31.924 10.355h-.609v.61h.609v-.61zM31.924 11.575h-.609v.61h.609v-.61zM32.533 10.965h-.609v.61h.609v-.61zM31.314 10.965h-.61v.61h.61v-.61z" style="fill:var(--color2, #4d5ae5)"/><path fill="#2e2f42" d="M42.694 14.948a1.013 1.013 0 0 0-.679-.403 1.016 1.016 0 0 0-.766.201l-.715.549-1.085.81-.776-.309a3.966 3.966 0 0 0 2.351-3.611c0-2.185-1.784-3.962-3.978-3.962S33.068 10 33.068 12.185c0 .792.237 1.528.64 2.148l-1.579-.014h-.003c-.005 0-.009.002-.013.003a.277.277 0 0 0-.089.018c-.007.003-.015.004-.022.008l-.011.004-1.847.912h-.001l-1.082.52a1.018 1.018 0 0 0 1.012 1.766l.793-.422 1.294-.668.775-.005-3.11 3.095-.001.001-.765.762c-.181.18-.28.418-.28.673s.099.493.28.674a.96.96 0 0 0 1.349 0l.751-.748.995-.743.515.513-1.007 1.002-.001.001-.765.762c-.181.18-.28.418-.28.673s.099.493.28.674a.955.955 0 0 0 1.348 0l1.99-1.981.001-.001.577-.571-.002-.002c.004-.004.009-.005.013-.009l2.952-3.233 1.983.282a.3.3 0 0 0 .15-.019l.028-.013c.011-.006.023-.009.033-.015l1.836-1.219c.007-.005.01-.012.017-.017s.016-.008.023-.015l.727-.681c.378-.354.43-.934.121-1.35zm-12.905 2.064a.408.408 0 0 1-.319.03.41.41 0 0 1-.122-.719l.751-.361.181.528.076.222-.567.301zm1.998-1.045-.885.457-.146-.427-.105-.307 1.158-.572-.023.848zm8.628-3.783c0 .525-.125 1.02-.342 1.463l-2.389-1.085a1.064 1.064 0 0 0-.45-.793l.837-2.777a3.358 3.358 0 0 1 2.345 3.193zm-6.736 0c0-1.848 1.511-3.352 3.368-3.352.145 0 .286.012.426.03l-.818 2.716c-.011 0-.021-.003-.033-.003-.59 0-1.07.479-1.07 1.067s.48 1.067 1.07 1.067c.397 0 .74-.219.925-.54l2.207 1.003a3.369 3.369 0 0 1-6.075-1.986zm3.404.457c0 .252-.207.457-.461.457s-.461-.205-.461-.457.207-.457.461-.457a.46.46 0 0 1 .461.457zm-7.103 8.585a.346.346 0 0 1-.589-.242c0-.091.036-.177.101-.241l.55-.548.486.484-.548.546zm1.836 2.134a.346.346 0 0 1-.589-.242c0-.091.036-.176.101-.241l.55-.548.487.484-.548.546zm1.99-1.982-.001.001-1.009 1.006-.487-.484 1.008-1.003.001-.001c.023-.023.037-.05.051-.077.004-.008.012-.015.015-.023.01-.023.011-.049.015-.073.002-.014.008-.027.008-.041 0-.02-.007-.04-.011-.06-.004-.018-.004-.037-.011-.055a.309.309 0 0 0-.052-.079c-.006-.007-.008-.015-.014-.022l-.001-.001-.918-.914c-.01-.01-.022-.014-.033-.022-.016-.012-.032-.024-.05-.033s-.035-.014-.053-.019a.228.228 0 0 0-.059-.011c-.019-.001-.036.001-.055.003-.02.002-.039.005-.059.012s-.036.016-.054.026c-.011.006-.024.009-.035.016l-1.013.756-.515-.513 1.371-1.363 2.492 2.451-.53.525zm3.896-4.01c-.009-.001-.017.002-.026.002a.293.293 0 0 0-.066.004c-.017.003-.034.006-.05.012a.311.311 0 0 0-.102.062c-.007.006-.016.009-.023.017l-2.685 2.94-2.473-2.432 1.619-1.61a.305.305 0 0 0-.217-.52l-1.268.008.016-.919 1.774.015a3.972 3.972 0 0 0 3.578 1.13c.023.018.045.037.074.049l1.377.549.087.433.102.506-1.716-.244zm2.31.102-.179-.89.827-.617.217.287.325.431-1.189.789zm2.145-1.618-.479.449-.532-.706.475-.364a.42.42 0 0 1 .31-.082.41.41 0 0 1 .225.703z" style="fill:var(--color4, #2e2f42)"/><path fill="#2e2f42" d="m36.344 17.454-1.225-1.219a.304.304 0 0 0-.43 0l-1.224 1.219a.308.308 0 0 0 0 .432l1.224 1.219a.304.304 0 0 0 .43 0l1.225-1.219a.307.307 0 0 0 0-.432zm-1.439 1.005-.792-.789.792-.789.793.789-.793.789zM38.379 9.755l-.147.592c.041.01.993.258.993 1.228h.609c0-1.153-.952-1.695-1.455-1.82zM39.835 12.184h-.609v.61h.609v-.61z" style="fill:var(--color4, #2e2f42)"/></symbol>
<symbol id="icon-instagram" viewBox="0 0 32 32"><path d="M32 16c0 4.418-1.791 8.418-4.686 11.314S20.419 32 16 32c-4.418 0-8.418-1.791-11.314-4.686S0 20.419 0 16c0-4.418 1.791-8.418 4.686-11.314S11.581 0 16 0c4.418 0 8.418 1.791 11.314 4.686S32 11.581 32 16z" /><path fill="#f4f4fd" d="M22.387 13.363c-.03-.68-.14-1.148-.298-1.553a3.136 3.136 0 0 0-.74-1.135 3.153 3.153 0 0 0-1.133-.738c-.408-.158-.873-.268-1.553-.298-.685-.032-.903-.04-2.641-.04s-1.955.008-2.638.038c-.68.03-1.148.14-1.553.298-.43.162-.815.413-1.135.74-.325.32-.578.708-.738 1.133-.158.408-.268.873-.298 1.553-.032.685-.04.903-.04 2.641s.008 1.955.038 2.638c.03.68.14 1.148.298 1.553.162.43.415.815.74 1.135.32.325.708.578 1.133.738.408.158.873.268 1.553.298.683.03.9.038 2.638.038s1.955-.007 2.638-.038c.68-.03 1.148-.14 1.553-.298a3.278 3.278 0 0 0 1.873-1.873c.157-.408.268-.873.298-1.553.03-.683.038-.9.038-2.638s-.003-1.955-.033-2.638zm-1.152 5.226c-.028.625-.133.963-.22 1.188-.215.558-.658 1-1.215 1.215-.225.088-.565.193-1.188.22-.675.03-.878.037-2.585.037s-1.913-.007-2.586-.037c-.625-.027-.963-.132-1.188-.22a1.966 1.966 0 0 1-.735-.478 1.998 1.998 0 0 1-.478-.735c-.088-.225-.193-.565-.22-1.188-.03-.675-.038-.878-.038-2.586s.007-1.913.038-2.586c.027-.625.132-.963.22-1.188.103-.278.265-.53.48-.735a1.99 1.99 0 0 1 .735-.478c.225-.087.565-.192 1.188-.22.675-.03.878-.038 2.586-.038 1.71 0 1.913.008 2.586.038.625.028.963.133 1.188.22.277.102.53.265.735.478.212.208.375.458.478.735.088.225.192.565.22 1.188.03.675.038.878.038 2.586s-.008 1.908-.038 2.583z" style="fill:var(--color3, #f4f4fd)"/><path fill="#f4f4fd" d="M16.024 12.713a3.29 3.29 0 0 0 0 6.576 3.29 3.29 0 0 0 0-6.576zm0 5.421a2.133 2.133 0 1 1 0-4.266 2.133 2.133 0 0 1 0 4.266zM20.21 12.583a.768.768 0 1 1-1.536 0 .768.768 0 0 1 1.536 0z" style="fill:var(--color3, #f4f4fd)"/></symbol>
<symbol id="icon-linkedin" viewBox="0 0 32 32"><path  d="M32 16c0 4.418-1.791 8.418-4.686 11.314S20.419 32 16 32c-4.418 0-8.418-1.791-11.314-4.686S0 20.419 0 16c0-4.418 1.791-8.418 4.686-11.314S11.581 0 16 0c4.418 0 8.418 1.791 11.314 4.686S32 11.581 32 16z"/><path fill="#f4f4fd" d="M22.397 22.4v-.001h.003v-4.694c0-2.297-.494-4.066-3.179-4.066-1.291 0-2.157.708-2.51 1.38h-.037v-1.165h-2.546V22.4h2.651v-4.231c0-1.114.211-2.192 1.591-2.192 1.36 0 1.38 1.272 1.38 2.263v4.161h2.648zM9.811 13.854h2.654V22.4H9.811v-8.546zM11.137 9.6c-.849 0-1.537.688-1.537 1.537s.688 1.551 1.537 1.551 1.537-.703 1.537-1.551S11.985 9.6 11.137 9.6z" style="fill:var(--color3, #f4f4fd)"/></symbol>
<symbol id="icon-twitter" viewBox="0 0 32 32"><path  d="M32 16c0 4.418-1.791 8.418-4.686 11.314S20.419 32 16 32c-4.418 0-8.418-1.791-11.314-4.686S0 20.419 0 16c0-4.418 1.791-8.418 4.686-11.314S11.581 0 16 0c4.418 0 8.418 1.791 11.314 4.686S32 11.581 32 16z" /><path fill="#f4f4fd" d="M22.4 12.031a5.455 5.455 0 0 1-1.512.414 2.608 2.608 0 0 0 1.154-1.45 5.245 5.245 0 0 1-1.664.635 2.623 2.623 0 0 0-4.539 1.795c0 .208.018.408.061.598a7.426 7.426 0 0 1-5.409-2.745 2.628 2.628 0 0 0 .807 3.507 2.591 2.591 0 0 1-1.186-.323v.029c0 1.275.91 2.334 2.102 2.578a2.636 2.636 0 0 1-.688.086c-.168 0-.338-.01-.497-.045a2.65 2.65 0 0 0 2.452 1.828 5.275 5.275 0 0 1-3.882 1.083 7.384 7.384 0 0 0 4.026 1.178c4.829 0 7.469-4 7.469-7.467a6.24 6.24 0 0 0-.01-.339c.521-.37.958-.831 1.315-1.362z" style="fill:var(--color3, #f4f4fd)"/></symbol>
<symbol id="icon-close" viewBox="0 0 32 32"><path  d="M32 16c0 8.837-7.163 16-16 16S0 24.837 0 16 7.163 0 16 0s16 7.163 16 16z"/><path fill="none" stroke="#000" stroke-width="1.333" d="M31.333 16c0 8.468-6.865 15.333-15.333 15.333S.667 24.468.667 16 7.532.667 16 .667 31.333 7.532 31.333 16z" style="stroke:var(--color2, #000)"/><path fill="#2e2f42" d="m21.333 11.741-1.074-1.074L16 14.926l-4.259-4.259-1.074 1.074L14.926 16l-4.259 4.259 1.074 1.074L16 17.074l4.259 4.259 1.074-1.074L17.074 16l4.259-4.259z" style="fill:var(--color3, #2e2f42)"/></symbol>
<symbol id="icon-close-symbol" viewBox="0 0 32 32">
<path d="M32 3.224l-3.224-3.224-12.776 12.776-12.776-12.776-3.224 3.224 12.776 12.776-12.776 12.776 3.224 3.224 12.776-12.776 12.776 12.776 3.224-3.224-12.776-12.776 12.776-12.776z"></path>
</symbol>
<symbol id="icon-email-vector" viewBox="0 0 43 32"><path d="M37.333 0h-32c-2.2 0-3.98 1.8-3.98 4l-.02 24c0 2.2 1.8 4 4 4h32c2.2 0 4-1.8 4-4V4c0-2.2-1.8-4-4-4zm-.8 8.5-14.14 8.84c-.64.4-1.48.4-2.12 0L6.133 8.5c-.5-.32-.8-.86-.8-1.44 0-1.34 1.46-2.14 2.6-1.44l13.4 8.38 13.4-8.38c1.14-.7 2.6.1 2.6 1.44 0 .58-.3 1.12-.8 1.44z"/>
</symbol><symbol id="icon-phone-vector" viewBox="0 0 32 32"><path d="m28.865 21.822-4.525-.517a3.543 3.543 0 0 0-2.921 1.015l-3.278 3.278A26.8 26.8 0 0 1 6.402 13.859l3.296-3.296a3.545 3.545 0 0 0 1.015-2.921l-.517-4.489A3.566 3.566 0 0 0 6.651 0H3.569C1.556 0-.118 1.675.006 3.687.95 18.9 13.117 31.049 28.312 31.993c2.013.125 3.687-1.55 3.687-3.563v-3.082c.018-1.799-1.336-3.313-3.135-3.527z"/></symbol>
<symbol id="icon-name-vector" viewBox="0 0 32 32"><path d="M16 16c4.42 0 8-3.58 8-8s-3.58-8-8-8-8 3.58-8 8 3.58 8 8 8zm0 4c-5.34 0-16 2.68-16 8v2c0 1.1.9 2 2 2h28c1.1 0 2-.9 2-2v-2c0-5.32-10.66-8-16-8z"/></symbol>
<symbol id="icon-telegram-frame" viewBox="0 0 32 32">
<path  d="M32 2.667l-32 15 10.227 3.156 15.773-12.323-11.997 13.488 0.009 0.004-0.012-0.004v7.345l5.735-5.576 7.267 2.243 4.999-23.333z"></path>
</symbol>
<symbol id="icon-menu" viewBox="0 0 47 32">
<path stroke-linejoin="round" stroke-linecap="round" stroke-miterlimit="4" stroke-width="4.3636" d="M1.961 29.154h42.965M1.961 15.615h42.965M1.961 2.077h42.965"></path>
</symbol>



<symbol id="icon-instagram-2" viewBox="0 0 32 32">
<path d="M32 16c0 0.006 0 0.013 0 0.021 0 4.412-1.791 8.405-4.686 11.293l-0 0c-2.888 2.895-6.881 4.686-11.293 4.686-0.007 0-0.015 0-0.022 0h0.001c-0.006 0-0.013 0-0.021 0-4.412 0-8.405-1.791-11.293-4.686l-0-0c-2.895-2.888-4.686-6.881-4.686-11.293 0-0.007 0-0.015 0-0.022v0.001c0-0.006 0-0.013 0-0.020 0-4.412 1.791-8.405 4.686-11.293l0-0c2.888-2.895 6.881-4.686 11.293-4.686 0.007 0 0.014 0 0.021 0h-0.001c0.006 0 0.013 0 0.021 0 4.412 0 8.405 1.791 11.293 4.686l0 0c2.895 2.888 4.686 6.881 4.686 11.293 0 0.007 0 0.015 0 0.022v-0.001z"></path>
<path fill="#f4f4fd" style="fill: var(--color2, #f4f4fd)" d="M25.581 12.045c-0.045-1.020-0.21-1.722-0.446-2.329-0.254-0.667-0.632-1.235-1.11-1.702l-0.001-0.001c-0.468-0.475-1.035-0.851-1.667-1.095l-0.032-0.011c-0.611-0.236-1.309-0.402-2.33-0.446-1.027-0.048-1.354-0.060-3.96-0.060-2.608 0-2.934 0.011-3.958 0.056-1.020 0.046-1.722 0.21-2.329 0.446-0.667 0.254-1.235 0.632-1.702 1.11l-0.001 0.001c-0.475 0.468-0.851 1.035-1.095 1.667l-0.011 0.032c-0.236 0.611-0.402 1.309-0.446 2.329-0.048 1.028-0.060 1.354-0.060 3.961s0.011 2.934 0.056 3.958c0.046 1.020 0.21 1.721 0.446 2.329 0.256 0.666 0.634 1.234 1.11 1.703l0.001 0.001c0.468 0.475 1.034 0.852 1.667 1.095l0.032 0.011c0.611 0.236 1.309 0.401 2.33 0.446 1.024 0.045 1.35 0.056 3.957 0.056s2.933-0.011 3.957-0.056c1.020-0.046 1.722-0.21 2.329-0.446 1.294-0.51 2.3-1.515 2.798-2.776l0.012-0.033c0.236-0.611 0.402-1.309 0.446-2.329 0.045-1.024 0.056-1.35 0.056-3.958s-0.003-2.933-0.048-3.957zM23.853 19.884c-0.042 0.938-0.2 1.444-0.33 1.782-0.331 0.84-0.984 1.492-1.802 1.815l-0.022 0.008c-0.337 0.132-0.847 0.289-1.781 0.33-1.013 0.045-1.317 0.056-3.878 0.056s-2.87-0.011-3.878-0.056c-0.938-0.042-1.444-0.198-1.782-0.33-0.432-0.161-0.801-0.405-1.102-0.715l-0.001-0.001c-0.31-0.302-0.554-0.67-0.71-1.082l-0.007-0.021c-0.131-0.338-0.288-0.848-0.33-1.782-0.046-1.013-0.056-1.317-0.056-3.878s0.010-2.87 0.056-3.878c0.041-0.938 0.198-1.444 0.33-1.782 0.154-0.416 0.398-0.795 0.72-1.103 0.302-0.31 0.671-0.554 1.083-0.709l0.021-0.007c0.338-0.131 0.848-0.288 1.782-0.33 1.013-0.045 1.317-0.056 3.878-0.056 2.566 0 2.869 0.011 3.878 0.056 0.938 0.042 1.444 0.199 1.782 0.33 0.432 0.162 0.801 0.406 1.102 0.715l0.001 0.001c0.318 0.312 0.562 0.686 0.716 1.103 0.132 0.338 0.289 0.848 0.33 1.782 0.045 1.013 0.056 1.317 0.056 3.878s-0.011 2.862-0.056 3.874z"></path>
<path fill="#f4f4fd" style="fill: var(--color2, #f4f4fd)" d="M16.035 11.070c-2.723 0.001-4.931 2.209-4.932 4.932v0c0 2.724 2.208 4.932 4.932 4.933h0c2.724-0.001 4.932-2.209 4.932-4.933v-0c-0.001-2.723-2.209-4.931-4.932-4.932h-0zM16.035 19.202c-1.767-0-3.2-1.433-3.2-3.2s1.433-3.2 3.2-3.2c0 0 0 0 0 0h-0c1.767 0 3.2 1.433 3.2 3.2s-1.433 3.2-3.2 3.2v0zM22.314 10.874c0 0.013 0.001 0.028 0.001 0.043 0 0.636-0.516 1.152-1.152 1.152s-1.152-0.516-1.152-1.152c0-0.015 0-0.030 0.001-0.045l-0 0.002c0.024-0.617 0.53-1.109 1.151-1.109s1.127 0.492 1.151 1.107l0 0.002z"></path>
</symbol>

<symbol id="icon-linkedin-2" viewBox="0 0 32 32">
<path d="M32 16c0 0.006 0 0.013 0 0.021 0 4.412-1.791 8.405-4.686 11.293l-0 0c-2.888 2.895-6.881 4.686-11.293 4.686-0.007 0-0.015 0-0.022 0h0.001c-0.006 0-0.013 0-0.021 0-4.412 0-8.405-1.791-11.293-4.686l-0-0c-2.895-2.888-4.686-6.881-4.686-11.293 0-0.007 0-0.015 0-0.022v0.001c0-0.006 0-0.013 0-0.020 0-4.412 1.791-8.405 4.686-11.293l0-0c2.888-2.895 6.881-4.686 11.293-4.686 0.007 0 0.014 0 0.021 0h-0.001c0.006 0 0.013 0 0.021 0 4.412 0 8.405 1.791 11.293 4.686l0 0c2.895 2.888 4.686 6.881 4.686 11.293 0 0.007 0 0.015 0 0.022v-0.001z"></path>
<path fill="#f4f4fd" style="fill: var(--color2, #f4f4fd)" d="M25.595 25.6h0.005v-7.042c0-3.445-0.742-6.098-4.768-6.098-1.936 0-3.236 1.062-3.766 2.070h-0.056v-1.748h-3.818v12.819h3.976v-6.347c0-1.671 0.317-3.287 2.386-3.287 2.040 0 2.070 1.907 2.070 3.394v6.24h3.972zM6.717 12.782h3.981v12.818h-3.981v-12.818zM8.706 6.4c-1.273 0-2.305 1.032-2.306 2.306v0c0 1.273 1.033 2.327 2.306 2.327s2.306-1.054 2.306-2.327c-0.001-1.273-1.033-2.305-2.306-2.306h-0z"></path>
</symbol>

<symbol id="icon-facebook-2" viewBox="0 0 32 32">
<path  d="M32 16c0 0.006 0 0.013 0 0.021 0 4.412-1.791 8.405-4.686 11.293l-0 0c-2.888 2.895-6.881 4.686-11.293 4.686-0.007 0-0.015 0-0.022 0h0.001c-0.006 0-0.013 0-0.021 0-4.412 0-8.405-1.791-11.293-4.686l-0-0c-2.895-2.888-4.686-6.881-4.686-11.293 0-0.007 0-0.015 0-0.022v0.001c0-0.006 0-0.013 0-0.020 0-4.412 1.791-8.405 4.686-11.293l0-0c2.888-2.895 6.881-4.686 11.293-4.686 0.007 0 0.014 0 0.021 0h-0.001c0.006 0 0.013 0 0.021 0 4.412 0 8.405 1.791 11.293 4.686l0 0c2.895 2.888 4.686 6.881 4.686 11.293 0 0.007 0 0.015 0 0.022v-0.001z"></path>
<path fill="#f4f4fd" style="fill: var(--color2, #f4f4fd)" d="M19.198 9.588h1.752v-3.053c-0.302-0.042-1.342-0.135-2.554-0.135-2.527 0-4.258 1.59-4.258 4.511v2.689h-2.789v3.413h2.789v8.587h3.419v-8.586h2.676l0.426-3.413h-3.102v-2.351c0.002-0.986 0.267-1.662 1.642-1.662z"></path>
</symbol>

<symbol id="icon-twitter-2" viewBox="0 0 32 32">
<path  d="M32 16c0 0.006 0 0.013 0 0.021 0 4.412-1.791 8.405-4.686 11.293l-0 0c-2.888 2.895-6.881 4.686-11.293 4.686-0.007 0-0.015 0-0.022 0h0.001c-0.006 0-0.013 0-0.021 0-4.412 0-8.405-1.791-11.293-4.686l-0-0c-2.895-2.888-4.686-6.881-4.686-11.293 0-0.007 0-0.015 0-0.022v0.001c0-0.006 0-0.013 0-0.020 0-4.412 1.791-8.405 4.686-11.293l0-0c2.888-2.895 6.881-4.686 11.293-4.686 0.007 0 0.014 0 0.021 0h-0.001c0.006 0 0.013 0 0.021 0 4.412 0 8.405 1.791 11.293 4.686l0 0c2.895 2.888 4.686 6.881 4.686 11.293 0 0.007 0 0.015 0 0.022v-0.001z"></path>
<path fill="#f4f4fd" style="fill: var(--color2, #f4f4fd)" d="M25.6 10.047c-0.714 0.313-1.474 0.52-2.268 0.622 0.816-0.49 1.429-1.247 1.724-2.148l0.008-0.028c-0.718 0.434-1.555 0.764-2.446 0.944l-0.050 0.008c-0.72-0.768-1.741-1.247-2.874-1.247-2.173 0-3.935 1.762-3.935 3.935 0 0.001 0 0.002 0 0.003v-0c0 0.312 0.026 0.613 0.091 0.898-3.273-0.16-6.168-1.728-8.114-4.118-0.338 0.57-0.537 1.256-0.538 1.989v0c0 1.363 0.702 2.572 1.748 3.271-0.655-0.018-1.265-0.196-1.798-0.495l0.020 0.010v0.043c0.002 1.899 1.342 3.484 3.128 3.863l0.026 0.005c-0.32 0.087-0.67 0.13-1.032 0.13-0.018 0-0.040 0.001-0.062 0.001-0.242 0-0.478-0.025-0.706-0.072l0.023 0.004c0.51 1.558 1.957 2.704 3.678 2.742-1.329 1.047-3.027 1.679-4.872 1.679-0.003 0-0.005 0-0.008 0h0c-0.323 0-0.633-0.014-0.942-0.054 1.696 1.108 3.772 1.766 6.003 1.766 0.013 0 0.025-0 0.038-0h-0.002c7.243 0 11.203-6 11.203-11.201 0-0.174-0.006-0.342-0.014-0.509 0.779-0.562 1.434-1.24 1.955-2.015l0.018-0.028z"></path>
</symbol>
</defs></svg>
